Coordinates
version=1
nRows=18
nColumns=22
inDegrees=yes

Units are S.I. units (second, meters, Newtons, ...)
If the header above contains a line with 'inDegrees', this indicates whether rotational values are in degrees (yes) or radians (no).

endheader
time	pelvis_tilt	pelvis_list	pelvis_rotation	pelvis_tx	pelvis_ty	pelvis_tz	hip_flexion_r	hip_adduction_r	hip_rotation_r	knee_angle_r	ankle_angle_r	subtalar_angle_r	hip_flexion_l	hip_adduction_l	hip_rotation_l	knee_angle_l	ankle_angle_l	subtalar_angle_l	lumbar_extension	lumbar_bending	lumbar_rotation
      1.90000000	      0.98817158	      1.13991070	     67.36663679	     -0.28585059	      0.98974125	     -0.02291099	     23.87534656	      0.69041908	      2.86027935	    -11.64388544	      4.10359487	     11.03103043	     -8.11622759	      4.73813214	      2.76648182	    -17.34979516	     20.68288635	     -6.71646261	    -14.34557032	     -0.32202133	     -0.55537342
      1.91000000	      0.96751016	      1.12591164	     67.77940134	     -0.28138745	      0.98884119	     -0.02963909	     23.81591482	      0.91440181	      3.33552495	    -12.09627607	      3.27637032	     10.54429301	     -8.42728472	      4.54661500	      3.12175744	    -17.65707841	     20.77576657	     -6.39160102	    -14.18376903	     -0.27777857	     -0.58373668
      1.92000000	      0.96511404	      1.06384056	     68.17752835	     -0.27686208	      0.98797058	     -0.03642353	     23.80195739	      1.18173133	      3.89734234	    -12.65247539	      2.18909908	     10.02622887	     -8.66768420	      4.31709127	      3.47281782	    -18.02573016	     20.81318851	     -6.07925244	    -13.96949708	     -0.19895117	     -0.57855070
      1.93000000	      0.97092215	      0.97176007	     68.54884475	     -0.27228535	      0.98715756	     -0.04329153	     23.84444420	      1.47189465	      4.48678447	    -13.32223793	      0.93356744	      9.41288938	     -8.87118637	      4.07422687	      3.81481722	    -18.41612169	     20.82732922	     -5.72611798	    -13.71326698	     -0.09996019	     -0.56709382
      1.94000000	      1.00622568	      0.85129354	     68.89994350	     -0.26771252	      0.98644637	     -0.05024386	     23.93763732	      1.78709868	      5.02083921	    -14.08713471	     -0.37544178	      8.80393582	     -9.02246581	      3.80259059	      4.14564000	    -18.87436113	     20.77984293	     -5.36714820	    -13.43105216	      0.04832274	     -0.51537448
      1.95000000	      1.06770936	      0.71851535	     69.22791429	     -0.26317571	      0.98587408	     -0.05730014	     24.08376184	      2.10671396	      5.43395829	    -14.96359939	     -1.58876197	      8.20902197	     -9.14280644	      3.51730106	      4.46579708	    -19.38639083	     20.67209462	     -4.99139623	    -13.13687652	      0.23938405	     -0.44099494
      1.96000000	      1.16263958	      0.57848764	     69.53461819	     -0.25868122	      0.98546929	     -0.06446220	     24.26685052	      2.42771372	      5.68538284	    -15.93418393	     -2.58820050	      7.64743948	     -9.23138669	      3.21344193	      4.76783348	    -19.96624110	     20.49758581	     -4.60282300	    -12.84011332	      0.47909874	     -0.34899256
      1.97000000	      1.28672526	      0.45131838	     69.82579881	     -0.25427543	      0.98527047	     -0.07172328	     24.46109805	      2.73207726	      5.76763580	    -16.98749751	     -3.28044512	      7.14783674	     -9.30422900	      2.90494674	      5.06245646	    -20.61188754	     20.24481608	     -4.21448066	    -12.56455746	      0.76302462	     -0.24124814
      1.98000000	      1.45605520	      0.34415269	     70.11643681	     -0.24994170	      0.98531526	     -0.07905084	     24.61219852	      3.03125307	      5.70120046	    -18.04913894	     -3.66837393	      6.75857703	     -9.35452864	      2.57187199	      5.36317815	    -21.35752917	     19.90192088	     -3.86651603	    -12.32876738	      1.09623052	     -0.12983444
      1.99000000	      1.64057380	      0.25612037	     70.39790019	     -0.24565568	      0.98556374	     -0.08644307	     24.73080403	      3.31059978	      5.51783250	    -19.12483714	     -3.70362805	      6.36561324	     -9.37812987	      2.24078627	      5.63946254	    -22.18229410	     19.46053051	     -3.47977737	    -12.11581134	      1.44663449	     -0.02732945
      2.00000000	      1.84669909	      0.19113669	     70.67283686	     -0.24138489	      0.98604087	     -0.09384422	     24.76739175	      3.58795923	      5.28298370	    -20.12942894	     -3.50837965	      5.99841766	     -9.36973021	      1.90567227	      5.90932572	    -23.10178635	     18.91998503	     -3.08070062	    -11.93958221	      1.80829976	      0.08773514
      2.01000000	      2.07984308	      0.14703958	     70.96359227	     -0.23714418	      0.98673626	     -0.10124308	     24.69603723	      3.86841927	      5.00546628	    -21.01147415	     -3.14879801	      5.64898137	     -9.31467145	      1.55105426	      6.15613656	    -24.13479396	     18.26411032	     -2.68599622	    -11.79860198	      2.18952944	      0.18821084
      2.02000000	      2.32359016	      0.11762348	     71.27190891	     -0.23293133	      0.98761702	     -0.10861248	     24.51899129	      4.14474701	      4.69349955	    -21.74418768	     -2.70398284	      5.27157179	     -9.19795207	      1.18810693	      6.36741389	    -25.27797348	     17.48039258	     -2.26609983	    -11.68082198	      2.57257977	      0.27573917
      2.03000000	      2.56892086	      0.09870165	     71.60721659	     -0.22877195	      0.98864917	     -0.11592322	     24.23610531	      4.40944529	      4.35079179	    -22.30563248	     -2.21724453	      4.86229358	     -9.00462205	      0.81984953	      6.53480026	    -26.53656691	     16.57001638	     -1.83565792	    -11.58050770	      2.94682491	      0.34127726
      2.04000000	      2.77928475	      0.08946561	     71.95667912	     -0.22466368	      0.98977218	     -0.12309856	     23.87750353	      4.63908412	      4.00995799	    -22.71393988	     -1.74617115	      4.36702971	     -8.71170900	      0.47530355	      6.60429195	    -27.91564921	     15.52642850	     -1.34326304	    -11.49164504	      3.26935486	      0.37356208
      2.05000000	      2.96570100	      0.05816161	     72.32685546	     -0.22065801	      0.99093144	     -0.13018107	     23.46722102	      4.84496467	      3.64627498	    -22.96080635	     -1.24730311	      3.87951660	     -8.31251766	      0.13958531	      6.62793181	    -29.37935175	     14.36360217	     -0.88105443	    -11.37313715	      3.57170298	      0.42024977
      2.06000000	      3.13909199	      0.02405098	     72.76005937	     -0.21685353	      0.99212788	     -0.13710695	     22.99935959	      5.01410118	      3.23155224	    -23.06611827	     -0.76785671	      3.52212061	     -7.80031078	     -0.20838919	      6.59131194	    -30.96343196	     13.13391630	     -0.54590674	    -11.26344978	      3.86798129	      0.38725949
      2.07000000	      3.25038293	     -0.04420353	     73.18221395	     -0.21310304	      0.99325433	     -0.14384350	     22.56281835	      5.14580720	      2.85130314	    -23.10628908	     -0.29264964	      3.04285705	     -7.15034412	     -0.52855313	      6.41836803	    -32.63239782	     11.81896789	     -0.04217161	    -11.10722494	      4.08893237	      0.39614497
